<svg id="Layer_1" data-name="Layer 1" xmlns="http://www.w3.org/2000/svg" viewBox="0 0 70 70"><defs><style>.cls-1{fill:#fff;}</style></defs><circle cx="35" cy="35" r="35"/><path class="cls-1" d="M35,45.6c-4.26,0-7-2.6-7-5.77a5.17,5.17,0,0,1,3.3-4.93,5.18,5.18,0,0,1-2.8-4.73c0-3.22,2.52-5.77,6.47-5.77s6.5,2.52,6.5,5.74a5.34,5.34,0,0,1-2.83,4.76A5.15,5.15,0,0,1,42,39.83C42,43,39.27,45.6,35,45.6Zm0-9.44a3.08,3.08,0,0,0-3.3,3.16A3.16,3.16,0,0,0,35,42.55a3.2,3.2,0,1,0,0-6.38Zm0-8.74a3,3,0,0,0-3.11,3.22,2.9,2.9,0,0,0,3.11,3,2.9,2.9,0,0,0,3.11-3A3,3,0,0,0,35,27.43Z"/></svg>